<?xml version="1.0" standalone="no"?>
<!DOCTYPE svg PUBLIC "-//W3C//DTD SVG 20010904//EN"
 "http://www.w3.org/TR/2001/REC-SVG-20010904/DTD/svg10.dtd">
<svg version="1.0" xmlns="http://www.w3.org/2000/svg"
 width="507.000000pt" height="507.000000pt" viewBox="0 0 507.000000 507.000000"
 preserveAspectRatio="xMidYMid meet">
<metadata>
Created by potrace 1.14, written by Peter Selinger 2001-2017
</metadata>
<g transform="translate(0.000000,507.000000) scale(0.100000,-0.100000)"
fill="#000000" stroke="none">
<path d="M0 2535 l0 -2535 2535 0 2535 0 0 2535 0 2535 -2535 0 -2535 0 0
-2535z m3060 1879 c0 -9 -11 -14 -30 -14 -33 0 -43 26 -12 32 24 6 42 -2 42
-18z m-402 -51 c6 -11 6 -28 1 -42 -8 -21 -14 -23 -51 -18 -55 7 -72 32 -42
61 21 22 81 21 92 -1z m272 -27 c0 -31 -16 -42 -28 -19 -12 22 -5 43 14 43 8
0 14 -10 14 -24z m-152 -23 c-3 -34 -1 -37 37 -49 22 -7 53 -16 68 -19 20 -4
32 -16 43 -40 11 -26 20 -35 38 -35 29 0 41 37 24 74 -6 15 -9 28 -7 30 2 2
26 -1 53 -8 59 -15 72 -35 57 -86 -14 -47 -14 -46 5 -65 15 -14 19 -13 50 12
92 76 116 87 141 62 6 -6 22 -17 35 -23 18 -9 23 -20 22 -47 -1 -30 5 -39 38
-63 50 -36 67 -69 46 -90 -9 -8 -18 -33 -22 -56 -6 -36 -10 -41 -29 -38 -17 2
-21 9 -19 27 3 30 -23 71 -45 71 -9 0 -31 -11 -49 -25 -33 -25 -84 -34 -84
-15 0 6 10 8 24 4 23 -5 23 -4 16 36 -4 23 -12 46 -18 52 -18 18 -47 4 -61
-29 -11 -24 -23 -34 -47 -39 -55 -10 -68 -3 -74 41 -7 49 -16 65 -39 65 -9 0
-26 7 -37 15 -11 8 -41 15 -71 15 -50 0 -52 1 -63 35 -13 41 -43 53 -99 39
-52 -13 -53 -40 -1 -54 23 -6 44 -18 47 -26 14 -36 -33 -109 -63 -97 -8 3 -26
26 -39 52 -13 25 -33 54 -44 63 -12 10 -21 25 -21 33 0 17 -39 35 -76 35 -19
0 -28 -8 -40 -35 -12 -30 -19 -35 -47 -35 -32 0 -33 1 -44 58 -9 46 -8 61 3
79 17 26 61 40 76 25 7 -7 29 -9 52 -6 23 3 59 1 81 -3 38 -8 90 -2 142 18 15
6 20 14 16 28 -6 25 2 51 17 51 7 0 10 -15 8 -37z m-496 -98 c24 -41 38 -73
38 -91 0 -8 16 -22 35 -30 19 -8 35 -21 35 -29 0 -9 13 -18 30 -21 37 -8 54
-27 45 -53 -7 -23 -31 -34 -56 -26 -14 5 -19 16 -19 41 l0 34 -52 0 c-55 0
-88 -19 -88 -52 0 -25 -51 -24 -74 1 -14 15 -16 29 -11 59 5 34 11 41 37 46
41 8 58 23 58 52 0 21 -5 24 -39 24 -40 0 -71 -20 -71 -45 0 -8 -16 -27 -35
-42 -19 -15 -35 -34 -35 -41 0 -7 -8 -16 -17 -19 -10 -4 -24 -15 -31 -25 -7
-10 -22 -18 -33 -18 -16 0 -19 -7 -19 -44 0 -31 5 -46 16 -50 13 -5 14 -9 4
-21 -7 -8 -19 -15 -26 -15 -20 0 -100 80 -96 96 4 19 -15 18 -22 -2 -3 -9 -6
-27 -6 -40 0 -40 -18 -63 -55 -70 -27 -5 -34 -11 -37 -33 -4 -34 -32 -35 -36
0 -2 21 2 28 22 33 26 6 32 21 18 43 -6 9 -24 11 -60 6 -66 -7 -77 -24 -69
-109 5 -53 3 -66 -15 -89 -11 -14 -18 -34 -15 -45 5 -20 -16 -30 -69 -30 -23
0 -33 -5 -37 -20 -4 -15 -14 -20 -40 -20 -31 0 -37 4 -46 33 -18 55 -64 90
-123 96 -15 2 -8 51 7 51 7 0 36 5 63 10 42 9 51 16 66 46 10 22 28 40 46 47
38 14 38 23 1 30 -17 4 -35 15 -41 27 -9 17 -7 24 13 44 22 22 27 23 66 13 37
-10 43 -9 62 10 21 20 22 20 40 2 34 -34 119 -15 119 26 0 22 27 36 76 38 37
1 50 6 52 19 4 23 -32 57 -68 65 -35 6 -39 19 -10 28 11 3 20 11 20 16 0 12
62 12 94 0 14 -6 26 -19 28 -32 4 -28 28 -38 28 -11 0 28 38 72 63 72 12 1 45
12 72 25 39 19 64 24 114 22 60 -2 66 -4 83 -32z m1274 -30 c10 -8 26 -15 35
-15 31 0 52 -36 45 -75 -4 -19 -3 -35 2 -35 22 0 19 -44 -4 -85 -40 -72 -32
-108 32 -135 24 -11 45 -28 49 -39 3 -12 13 -21 21 -21 15 0 34 -39 34 -71 0
-28 -65 -27 -82 1 -16 26 -36 25 -65 -2 -22 -21 -23 -21 -43 -3 -13 12 -20 31
-20 57 0 34 -4 40 -35 55 -19 9 -35 22 -35 29 0 6 16 35 36 63 30 44 35 59 32
99 -2 38 -8 49 -28 59 -28 14 -40 52 -32 102 5 35 26 41 58 16z m-1872 -104
c3 -4 -13 -14 -36 -22 -22 -7 -43 -21 -46 -31 -4 -15 -8 -14 -43 9 -22 14 -36
30 -32 34 15 15 149 24 157 10z m914 -73 c2 -19 -2 -28 -17 -33 -27 -8 -61 11
-61 35 0 21 15 30 50 27 19 -2 26 -8 28 -29z m-498 -44 c23 -59 -3 -121 -46
-112 -15 3 -18 12 -15 58 1 37 8 59 19 68 23 18 31 15 42 -14z m1654 -9 c12
-48 -22 -76 -44 -36 -13 26 4 73 24 65 8 -3 17 -16 20 -29z m133 -202 c5 -39
4 -41 -26 -45 -39 -6 -41 -3 -41 43 0 47 26 78 47 56 8 -8 17 -32 20 -54z
m-2737 -24 c0 -4 -7 -10 -15 -13 -19 -7 -30 17 -20 42 6 16 7 16 21 -2 8 -11
14 -23 14 -27z m2316 -25 c-4 -14 -11 -22 -16 -19 -14 9 -12 73 3 78 14 5 21
-25 13 -59z m-2196 -38 c7 -18 19 -25 54 -30 41 -6 47 -11 67 -52 28 -58 17
-90 -35 -100 -43 -8 -76 0 -106 24 -20 16 -21 21 -11 41 21 38 10 73 -27 85
l-32 11 22 23 c29 29 56 28 68 -2z m2543 -24 c9 -46 -1 -64 -40 -76 -12 -4
-25 -16 -28 -27 -8 -23 -18 -24 -36 -3 -7 9 -24 20 -37 25 -17 6 -22 15 -20
32 2 18 10 23 48 25 49 4 80 24 80 54 0 35 24 12 33 -30z m157 -4 c29 -57 21
-119 -20 -148 -46 -32 -57 -27 -63 33 -3 39 0 61 14 87 10 19 20 43 23 53 8
27 22 20 46 -25z m-2902 -2 c5 -44 -13 -54 -33 -17 -17 35 -12 54 13 49 10 -2
18 -15 20 -32z m1662 17 c0 -27 31 -53 62 -53 17 0 41 -9 55 -20 35 -27 75
-25 111 5 28 24 34 25 88 16 52 -8 61 -13 102 -60 39 -45 48 -51 83 -51 30 0
42 -5 56 -26 13 -21 14 -30 5 -45 -10 -15 -8 -21 10 -33 21 -15 24 -14 50 11
32 30 40 21 36 -41 -3 -40 -3 -40 42 -48 60 -10 89 -34 109 -88 12 -33 26 -50
54 -65 25 -14 37 -27 37 -42 0 -13 8 -24 20 -28 23 -7 40 -35 50 -82 7 -30 5
-33 -25 -43 -36 -12 -47 -36 -36 -78 6 -22 13 -27 37 -26 16 0 36 2 44 5 12 3
16 -9 18 -63 l3 -68 38 0 c27 0 41 -5 45 -16 11 -27 -3 -51 -32 -57 -17 -4
-32 -18 -43 -38 -13 -29 -20 -33 -60 -33 -40 -1 -44 -3 -44 -26 0 -24 2 -25
80 -27 99 -3 105 -6 105 -41 0 -48 -21 -56 -64 -27 -20 14 -39 25 -41 25 -3 0
-11 -14 -20 -30 -15 -29 -14 -32 9 -67 29 -41 27 -48 -11 -58 -54 -13 -59 -59
-9 -80 19 -8 37 -18 40 -23 9 -15 -13 -36 -51 -47 -33 -9 -40 -17 -56 -59 -15
-40 -16 -54 -5 -81 14 -40 -1 -65 -38 -65 -26 0 -28 7 -15 63 8 32 6 39 -12
52 -38 26 -50 6 -52 -91 -3 -91 -14 -114 -56 -114 -11 0 -19 -11 -23 -32 -9
-45 -33 -68 -73 -68 -23 0 -40 -8 -56 -26 -20 -23 -27 -25 -69 -20 -49 7 -60
-2 -33 -24 30 -25 12 -80 -27 -80 -10 0 -27 -9 -39 -21 -16 -16 -23 -18 -34
-9 -8 6 -29 12 -47 12 -58 2 -163 -14 -173 -26 -5 -6 -27 -20 -47 -30 -30 -15
-49 -17 -95 -12 -32 4 -68 13 -80 21 -34 22 -109 19 -145 -6 -34 -24 -72 -22
-166 11 -31 11 -71 20 -89 20 -18 0 -41 4 -51 9 -9 5 -32 15 -49 21 -18 7 -33
18 -33 24 0 6 -8 20 -16 31 -15 20 -16 19 -44 -12 -32 -35 -49 -40 -68 -21
-21 21 -14 57 13 70 38 17 31 41 -20 66 -35 17 -51 20 -65 12 -24 -13 -77 -13
-85 0 -4 6 5 24 19 41 45 53 31 74 -52 81 -65 6 -83 22 -89 82 -5 43 -8 46
-44 56 -36 10 -39 13 -40 48 -1 59 -33 146 -55 150 -31 6 -38 19 -35 66 2 40
-1 46 -38 75 -31 24 -46 30 -66 25 -14 -4 -31 -1 -40 6 -8 6 -34 18 -57 25
-38 11 -43 16 -43 41 0 33 22 41 81 29 27 -5 37 -14 49 -40 18 -46 41 -45 88
3 34 35 37 43 39 102 3 53 0 65 -13 68 -10 2 -25 -11 -39 -32 -30 -50 -56 -48
-70 5 -21 78 16 117 85 90 11 -5 26 -6 33 -4 15 6 17 83 2 83 -6 0 -14 10 -19
21 -5 16 -2 28 16 45 13 13 23 30 23 39 0 8 12 21 28 28 15 6 30 16 34 21 10
15 -6 46 -32 59 -14 7 -26 23 -28 35 -3 19 1 22 27 22 20 0 34 -7 41 -20 14
-25 46 -26 60 -1 5 11 10 42 10 69 0 28 9 70 21 97 22 49 115 150 176 192 31
21 39 23 64 13 31 -13 79 -6 79 11 0 6 24 33 53 60 37 35 69 54 112 68 33 10
77 29 98 41 30 18 40 20 52 10 8 -7 15 -19 15 -26 0 -8 12 -19 26 -24 27 -11
52 -2 88 31 22 21 94 26 127 8 25 -13 49 4 49 36 0 28 8 35 37 35 15 0 23 -6
23 -17z m-1638 -120 c7 -16 23 -29 35 -31 22 -3 33 -27 33 -74 0 -60 18 -71
60 -38 32 25 60 26 60 1 0 -11 -5 -21 -10 -23 -6 -2 -12 -16 -13 -33 -2 -24 3
-30 28 -38 17 -5 38 -13 47 -18 10 -5 25 -9 33 -9 28 0 27 -28 0 -65 -31 -40
-45 -43 -70 -15 -21 23 -67 26 -85 5 -16 -20 -5 -33 35 -41 20 -3 38 -10 41
-15 12 -20 -8 -65 -36 -81 -33 -19 -38 -39 -15 -58 8 -7 15 -23 15 -35 0 -13
-7 -25 -15 -29 -8 -3 -15 -15 -15 -26 0 -11 -3 -20 -7 -21 -5 0 -20 -2 -35 -4
-24 -3 -26 -1 -19 18 4 12 7 36 7 52 -1 28 -4 30 -51 35 -27 3 -65 13 -84 23
-19 9 -35 17 -37 17 -7 0 -22 -63 -18 -75 7 -18 15 -19 48 -3 22 9 29 8 46 -7
11 -10 20 -26 20 -37 0 -10 6 -18 14 -18 8 0 24 -8 36 -18 17 -14 21 -24 15
-41 -5 -18 -13 -22 -38 -19 -26 2 -32 7 -32 27 0 14 -5 25 -10 27 -6 1 -28 7
-51 14 -36 11 -45 10 -67 -5 -30 -19 -61 -8 -72 25 -14 45 -9 145 10 188 10
23 22 42 26 42 4 0 19 -16 33 -35 30 -39 50 -44 66 -16 16 31 12 59 -12 75
-18 13 -20 20 -12 48 8 28 15 34 44 38 54 8 100 47 100 86 0 34 -13 44 -55 44
-31 0 -39 14 -23 42 19 35 36 87 30 93 -3 3 -16 5 -28 5 -26 0 -38 14 -30 35
9 25 44 17 58 -12z m2518 -11 c0 -5 -7 -9 -15 -9 -8 0 -12 4 -9 9 3 4 9 8 15
8 5 0 9 -4 9 -8z m-50 -66 c-1 -16 -25 -46 -38 -46 -20 0 -26 43 -7 56 19 14
45 8 45 -10z m-2080 -61 c0 -28 -3 -30 -50 -39 -42 -7 -74 11 -65 35 6 17 80
39 103 31 6 -2 12 -15 12 -27z m2499 -41 c18 -30 18 -35 5 -49 -20 -20 -60
-19 -68 1 -8 21 -8 99 1 107 9 9 39 -19 62 -59z m-2219 20 c0 -9 -5 -14 -12
-12 -18 6 -21 28 -4 28 9 0 16 -7 16 -16z m2418 -78 c15 -7 44 -16 65 -20 27
-5 37 -12 37 -25 0 -24 -18 -31 -98 -38 -47 -4 -65 -11 -73 -24 -13 -25 5 -59
31 -59 17 0 20 -7 20 -45 0 -45 0 -45 -35 -45 -32 0 -37 4 -65 60 -37 74 -37
87 0 108 18 10 35 33 45 59 18 46 30 51 73 29z m-438 -51 c0 -8 -4 -15 -9 -15
-13 0 -22 16 -14 24 11 11 23 6 23 -9z m218 -62 c2 -9 -7 -13 -28 -13 -28 0
-31 2 -20 15 15 18 41 16 48 -2z m-2538 -73 c0 -13 -7 -20 -20 -20 -13 0 -20
7 -20 20 0 13 7 20 20 20 13 0 20 -7 20 -20z m130 0 c0 -15 -7 -20 -25 -20
-27 0 -28 1 -19 24 9 24 44 20 44 -4z m2748 -69 c-2 -18 -10 -27 -25 -29 -19
-3 -23 1 -23 22 0 14 8 42 17 62 l18 36 8 -32 c4 -18 7 -44 5 -59z m-2811 21
c3 -25 -22 -41 -39 -24 -7 7 -6 17 2 32 14 26 32 22 37 -8z m2753 -74 c0 -14
11 -31 29 -43 46 -30 46 -51 0 -69 -69 -28 -76 -22 -80 64 -3 66 -1 70 26 70
19 0 25 -5 25 -22z m-3430 -80 c-1 -26 -22 -58 -39 -58 -15 0 -29 39 -23 62 3
12 14 18 33 18 23 0 29 -4 29 -22z m3610 -9 c0 -5 -7 -9 -15 -9 -15 0 -20 12
-9 23 8 8 24 -1 24 -14z m-60 -65 c0 -31 -23 -28 -28 4 -2 15 2 22 12 22 11 0
16 -9 16 -26z m-212 -36 c18 -18 14 -45 -8 -51 -50 -13 -80 21 -42 49 21 17
35 17 50 2z m-3064 -33 c7 -34 8 -35 55 -35 l49 0 -1 -66 -2 -67 40 -11 c24
-7 41 -19 43 -29 3 -14 -5 -17 -55 -17 -32 0 -76 -5 -98 -11 -96 -25 -95 -26
-95 19 0 49 -16 64 -68 61 -34 -2 -45 2 -69 27 -15 17 -43 36 -60 43 -64 26
-30 55 60 52 27 -1 47 3 47 9 0 6 11 22 25 35 19 20 34 25 73 25 49 0 50 -1
56 -35z m270 14 c6 -5 6 -21 -1 -41 -5 -19 -6 -46 -1 -63 10 -37 5 -51 -20
-57 -18 -5 -21 1 -27 43 -8 55 -42 89 -89 89 -19 0 -26 5 -26 18 0 10 3 22 7
26 9 9 145 -4 157 -15z m3062 0 c10 -17 -13 -36 -27 -22 -12 12 -4 33 11 33 5
0 12 -5 16 -11z m-136 -68 c0 -10 -7 -21 -14 -24 -26 -10 -49 -67 -38 -92 9
-19 7 -27 -9 -41 -18 -16 -19 -16 -19 2 0 32 -16 46 -56 53 -42 7 -55 26 -24
36 11 3 34 18 52 33 27 23 74 47 101 51 4 0 7 -8 7 -18z m-3412 -107 c19 -5
23 -12 20 -38 -2 -22 -9 -32 -23 -34 -11 -2 -34 -10 -52 -19 -29 -15 -33 -15
-57 0 -54 36 -17 78 84 96 3 0 15 -2 28 -5z m3022 -38 c0 -19 -26 -27 -39 -12
-13 15 -4 26 21 26 10 0 18 -6 18 -14z m-2936 -72 c20 -19 14 -30 -18 -36 -18
-4 -26 0 -30 15 -10 38 19 51 48 21z m267 -36 c65 2 66 1 61 -23 -2 -13 -12
-26 -21 -29 -14 -4 -198 -10 -228 -7 -14 1 -18 53 -6 65 4 4 35 4 68 0 33 -4
90 -7 126 -6z m2963 -48 c15 -38 15 -44 -3 -98 -14 -41 -25 -58 -39 -60 -22
-3 -52 31 -52 60 0 13 -8 18 -25 18 -18 0 -25 5 -25 20 0 13 7 20 18 20 10 0
29 17 42 40 34 54 62 54 84 0z m111 20 c0 -10 -12 -16 -32 -18 -35 -3 -41 6
-21 26 17 17 53 11 53 -8z m-3366 -6 c47 -14 53 -18 49 -39 -7 -32 28 -48 121
-55 76 -5 75 -5 101 -60 4 -8 17 -16 29 -18 24 -4 26 -19 6 -45 -19 -26 -57
-18 -73 16 -9 18 -21 27 -37 27 -30 0 -39 -14 -41 -65 -2 -29 4 -47 22 -68 13
-16 22 -33 18 -38 -3 -5 12 -9 32 -9 42 0 84 31 84 62 0 10 2 18 4 18 2 0 10
2 18 5 11 4 13 -18 12 -112 l-1 -118 -44 0 c-44 0 -44 0 -47 -37 -4 -43 24
-78 61 -78 49 0 61 -42 26 -91 -25 -35 -22 -63 9 -67 17 -3 22 2 22 18 0 13
11 28 29 38 17 9 32 25 35 34 7 29 38 35 54 10 8 -12 22 -22 32 -22 10 0 22
-6 28 -13 15 -18 -8 -61 -33 -64 -161 -16 -171 -24 -109 -81 33 -31 36 -37 21
-40 -11 -2 -31 8 -46 22 -15 14 -63 39 -107 54 l-79 28 5 39 c3 22 9 46 13 53
11 16 -1 52 -16 52 -7 0 -20 21 -31 48 -10 26 -25 62 -33 80 -21 48 -14 66 27
70 46 5 61 18 58 54 l-2 30 -56 -7 c-30 -4 -58 -9 -61 -11 -4 -2 -10 -20 -13
-39 -7 -35 -26 -49 -26 -18 0 9 -11 40 -25 68 -19 42 -30 54 -54 58 -43 9 -53
34 -35 87 8 24 24 54 35 68 l20 26 -26 15 c-17 10 -25 24 -25 42 0 15 -3 41
-6 58 -4 17 -5 31 -2 31 2 0 28 -7 57 -16z m-124 -64 c0 -20 -6 -26 -27 -28
-24 -3 -28 0 -28 21 0 30 9 39 35 35 14 -2 20 -10 20 -28z m3613 9 c-2 -6 -8
-10 -13 -10 -5 0 -11 4 -13 10 -2 6 4 11 13 11 9 0 15 -5 13 -11z m-3043 -59
c10 -11 24 -20 32 -20 18 0 18 -84 -1 -99 -15 -13 -46 -5 -46 12 0 18 -32 47
-52 47 -24 0 -31 20 -19 53 13 33 59 37 86 7z m183 -147 c-2 -23 -9 -29 -34
-31 -44 -4 -63 21 -32 42 12 9 33 16 46 16 20 0 23 -4 20 -27z m2691 16 c28
-10 31 -15 31 -51 0 -28 3 -37 13 -32 9 5 9 4 0 -6 -10 -11 -16 -11 -31 3 -10
9 -27 17 -38 17 -26 0 -44 19 -44 45 0 37 15 43 69 24z m-25 -135 c9 -8 16
-19 16 -24 0 -18 -41 -30 -93 -28 l-54 3 21 27 c12 15 34 28 51 31 17 2 33 5
37 5 4 1 14 -5 22 -14z m-3424 -29 c0 -8 -9 -15 -20 -15 -20 0 -26 11 -13 23
12 13 33 7 33 -8z m3158 -42 c2 -15 -4 -23 -18 -28 -28 -9 -34 -2 -26 30 8 32
39 31 44 -2z m148 -66 c4 -11 16 -11 58 -4 65 12 86 5 86 -26 0 -21 -7 -26
-45 -36 -25 -6 -45 -16 -45 -21 0 -5 -13 -16 -29 -24 -33 -17 -50 -53 -53
-113 l-2 -43 -43 0 c-31 0 -45 5 -50 16 -10 26 21 98 47 111 38 19 44 49 13
73 -14 11 -30 20 -35 20 -5 0 -8 8 -6 17 2 10 20 22 43 29 53 16 55 16 61 1z
m-2738 -28 c4 -32 -21 -59 -53 -59 -18 0 -24 7 -28 33 -7 48 1 58 42 55 30 -3
36 -7 39 -29z m-358 -38 c0 -69 16 -110 40 -104 13 3 22 -1 26 -11 10 -27 0
-28 -49 -6 -52 23 -54 29 -41 124 9 61 24 59 24 -3z m674 -192 c-7 -26 -17
-34 -56 -47 -47 -15 -78 -12 -78 8 0 5 18 13 41 16 31 5 43 13 50 33 21 54 59
46 43 -10z m2206 31 c0 -5 -18 -10 -39 -10 -22 0 -43 5 -46 10 -4 6 12 10 39
10 25 0 46 -4 46 -10z m-2752 -139 c-2 -8 -8 -16 -14 -18 -14 -5 -25 33 -17
54 5 14 8 13 20 -3 7 -10 12 -25 11 -33z m2776 -10 c3 -5 22 -12 42 -16 43 -8
84 -32 84 -50 0 -14 -44 -25 -101 -25 -32 0 -41 5 -51 25 -6 14 -27 35 -45 47
-36 22 -34 34 7 40 26 4 55 -5 64 -21z m-2412 -11 c30 -9 39 -17 46 -42 6 -24
16 -34 42 -43 44 -15 46 -26 7 -50 -41 -26 -47 -71 -17 -120 12 -19 17 -35 11
-35 -6 0 -11 -7 -11 -15 0 -8 -5 -25 -11 -38 -10 -22 -13 -23 -45 -12 -20 6
-42 19 -51 28 -15 15 -14 17 13 33 27 16 29 21 31 86 3 90 -8 118 -45 118 -40
0 -52 -17 -52 -71 0 -59 -13 -71 -71 -61 -37 6 -44 11 -47 32 -2 20 3 28 27
36 32 12 51 58 51 121 0 25 5 33 23 36 40 8 61 7 99 -3z m2198 -30 c8 -14 7
-28 -3 -52 -8 -20 -11 -41 -6 -53 4 -11 8 -44 8 -72 1 -52 1 -53 -29 -53 -16
0 -33 6 -37 13 -4 7 -20 20 -35 30 -37 23 -35 37 7 74 31 28 35 37 35 82 0 48
2 51 25 51 14 0 29 -8 35 -20z m-2435 -39 c25 -56 14 -81 -36 -81 -44 0 -48
12 -27 81 15 51 39 51 63 0z m2603 -24 c6 -5 12 -22 12 -37 0 -15 7 -33 15
-40 11 -9 13 -16 5 -24 -7 -7 -19 -3 -39 12 -16 11 -40 24 -54 27 -32 9 -55
49 -38 69 13 16 75 12 99 -7z m-2188 -107 c0 -33 -3 -40 -20 -40 -22 0 -25 16
-10 54 14 39 30 31 30 -14z m1809 -26 c28 -14 51 -29 51 -33 0 -4 -11 -18 -24
-30 -13 -13 -27 -33 -30 -46 -8 -31 -36 -39 -72 -20 -16 8 -34 15 -40 15 -18
0 -25 -28 -18 -66 5 -30 3 -34 -20 -40 -32 -8 -54 8 -58 44 -4 37 -33 40 -50
5 -19 -40 -53 -42 -73 -4 -8 17 -21 31 -29 31 -7 0 -21 9 -32 21 -29 32 -8 54
57 56 30 1 69 4 88 5 29 3 37 -2 51 -27 11 -20 24 -30 40 -30 23 0 24 3 21 50
-2 49 -1 51 36 72 21 13 41 23 45 23 3 0 29 -11 57 -26z m319 -31 c2 -9 -7
-13 -27 -13 -30 0 -39 9 -24 24 11 10 46 3 51 -11z m-1947 -10 c8 -9 15 -24
15 -35 2 -30 4 -33 12 -23 4 7 43 9 101 7 l93 -4 25 -54 c15 -34 31 -54 41
-54 9 0 24 -13 34 -29 11 -20 26 -31 45 -33 23 -2 29 -8 31 -34 3 -29 1 -32
-37 -38 -24 -3 -46 -14 -54 -27 -17 -24 -145 -91 -158 -83 -5 3 -9 11 -9 19 0
17 -23 25 -76 25 -36 0 -44 3 -44 18 0 25 -29 50 -68 58 -27 6 -30 9 -21 25 5
11 15 19 22 19 7 1 31 18 55 39 48 44 55 83 23 122 -25 30 -33 22 -39 -41 l-5
-50 -49 0 -49 0 6 38 c10 58 11 59 60 66 36 6 45 11 43 24 -2 11 -15 18 -33
20 -35 4 -50 16 -41 31 11 17 62 13 77 -6z m-157 -26 c11 -8 17 -23 14 -38 -2
-20 -9 -24 -44 -27 -38 -3 -41 -1 -51 32 -9 30 -8 36 6 39 32 9 57 7 75 -6z
m875 -59 c-1 -24 -9 -51 -17 -60 -16 -19 -13 -59 5 -65 6 -2 13 6 15 19 2 17
11 24 32 26 16 2 33 -2 38 -10 11 -18 0 -59 -20 -74 -15 -11 -14 -16 16 -47
40 -41 37 -73 -6 -83 -15 -3 -38 -11 -51 -17 -20 -10 -26 -8 -40 9 -12 15 -32
23 -68 26 -61 6 -74 0 -76 -35 -2 -18 -9 -28 -25 -32 -24 -6 -132 20 -132 32
0 6 40 73 44 73 2 0 17 -7 34 -16 18 -8 42 -14 54 -12 21 3 23 7 20 55 -4 49
-2 52 27 68 19 9 31 23 31 36 0 37 19 59 51 59 23 0 30 4 28 18 -5 30 11 72
27 72 12 0 15 -10 13 -42z m-344 -14 c0 -22 -5 -30 -22 -32 -25 -4 -28 4 -13
43 13 34 35 27 35 -11z m500 -29 c0 -27 -3 -30 -37 -33 -36 -3 -38 -2 -38 26
0 37 7 44 45 40 26 -3 30 -7 30 -33z m274 -9 c9 -7 30 -18 46 -23 30 -10 30
-10 30 -86 0 -66 -3 -77 -20 -85 -30 -13 -45 -4 -45 29 0 16 -4 29 -9 29 -17
0 -51 67 -51 102 0 50 18 62 49 34z m468 -32 c7 -20 -13 -34 -49 -34 -21 0
-29 -6 -33 -25 -3 -14 -8 -37 -11 -52 -8 -39 -22 -53 -53 -53 -15 0 -36 -6
-47 -14 -12 -8 -43 -18 -70 -21 -40 -6 -53 -4 -64 10 -12 14 -9 20 18 45 22
20 32 38 32 57 0 36 16 53 51 53 21 0 32 -9 49 -37 12 -20 20 -47 17 -60 l-4
-23 23 25 c19 21 22 33 18 70 -4 44 -4 45 26 45 16 0 30 4 30 9 0 8 11 12 53
20 4 0 10 -6 14 -15z m-616 -99 c9 -44 19 -89 22 -100 8 -28 -37 -62 -58 -45
-8 7 -15 18 -15 25 0 7 -16 32 -35 56 -19 24 -35 51 -35 59 0 28 60 91 84 88
18 -3 23 -15 37 -83z m-395 -192 c15 -16 15 -17 -2 -24 -28 -11 -31 -11 -38 7
-13 33 12 44 40 17z m608 1 c21 -21 21 -23 -11 -35 -24 -9 -30 -7 -45 11 -10
12 -15 26 -12 31 9 15 51 10 68 -7z"/>
<path d="M3268 4063 c7 -3 16 -2 19 1 4 3 -2 6 -13 5 -11 0 -14 -3 -6 -6z"/>
<path d="M1877 4033 c-13 -12 -7 -54 8 -60 9 -3 24 2 35 12 15 13 17 22 9 36
-10 19 -39 25 -52 12z"/>
<path d="M1507 3752 c-25 -28 -21 -42 14 -42 27 0 30 3 27 27 -4 33 -19 39
-41 15z"/>
<path d="M3365 3181 c-7 -12 12 -24 25 -16 11 7 4 25 -10 25 -5 0 -11 -4 -15
-9z"/>
<path d="M2591 3131 c-18 -12 -9 -47 23 -86 27 -34 30 -33 50 16 19 46 6 79
-31 79 -15 0 -34 -4 -42 -9z"/>
<path d="M3583 3073 c-7 -2 -13 -18 -13 -34 0 -24 4 -29 24 -29 16 0 26 7 29
21 10 39 -6 56 -40 42z"/>
<path d="M2948 3044 c-31 -16 -39 -47 -10 -37 22 8 52 34 52 45 0 11 -11 10
-42 -8z"/>
<path d="M3246 3045 c4 -8 10 -12 15 -9 14 8 10 24 -6 24 -9 0 -12 -6 -9 -15z"/>
<path d="M1647 2923 c-12 -12 -7 -31 10 -37 24 -9 39 9 23 29 -14 16 -23 19
-33 8z"/>
<path d="M2693 2713 c-7 -2 -13 -11 -13 -18 0 -27 70 -35 91 -9 10 13 10 17
-2 25 -15 9 -56 11 -76 2z"/>
<path d="M2531 2641 c-21 -41 -41 -54 -66 -45 -8 4 -27 3 -41 0 -20 -5 -25
-12 -22 -34 l3 -27 115 -8 c63 -4 133 -9 155 -11 32 -3 41 -7 43 -25 2 -14 11
-21 27 -21 60 0 74 34 26 62 -16 9 -31 26 -33 39 -2 16 -13 26 -34 32 -18 5
-36 19 -42 31 -9 20 -67 46 -100 46 -7 0 -20 -17 -31 -39z"/>
<path d="M2500 2144 c-36 -18 -79 -34 -96 -34 -33 0 -60 -22 -49 -40 3 -6 46
-10 100 -10 93 0 93 0 103 28 l10 27 1 -27 c1 -14 -3 -28 -8 -30 -5 -1 -13
-15 -16 -30 -5 -21 -3 -29 10 -34 21 -9 65 11 65 30 0 18 31 26 100 26 61 0
72 5 89 39 14 25 25 25 108 0 58 -18 71 -5 54 52 l-13 42 -75 -7 c-63 -5 -80
-10 -99 -31 -17 -19 -33 -25 -63 -25 -35 0 -43 4 -56 30 -14 26 -21 30 -58 29
-27 0 -64 -12 -107 -35z"/>
<path d="M1087 3223 c-3 -5 -6 -37 -8 -73 -4 -56 -2 -65 14 -68 39 -8 67 7 67
35 0 14 7 34 15 43 14 15 13 19 -9 43 -24 25 -69 36 -79 20z"/>
<path d="M1022 2699 c2 -6 8 -10 13 -10 5 0 11 4 13 10 2 6 -4 11 -13 11 -9 0
-15 -5 -13 -11z"/>
<path d="M956 2190 c-8 -69 -4 -80 29 -80 30 0 37 12 37 61 -1 59 -10 79 -36
79 -21 0 -24 -6 -30 -60z"/>
<path d="M1940 1070 c-29 -11 -52 -69 -38 -94 5 -9 21 -16 37 -16 15 0 36 -7
47 -15 10 -8 24 -15 30 -15 16 0 38 56 30 76 -3 8 -1 24 4 34 6 10 6 21 2 24
-19 11 -88 15 -112 6z"/>
<path d="M2474 993 c3 -22 26 -29 36 -12 11 17 3 29 -20 29 -11 0 -17 -6 -16
-17z"/>
</g>
</svg>
